<?xml version="1.0" encoding="UTF-8"?>
<svg xmlns="http://www.w3.org/2000/svg" xmlns:xlink="http://www.w3.org/1999/xlink" width="22px" height="19px" viewBox="0 0 22 19" version="1.1">
<g id="surface1">
<path style=" stroke:none;fill-rule:nonzero;fill:rgb(62.745098%,38.039216%,41.568627%);fill-opacity:1;" d="M 14.027344 3.265625 C 14.027344 4.386719 13.121094 5.292969 12.003906 5.292969 C 10.882812 5.292969 9.976562 4.386719 9.976562 3.265625 C 9.976562 2.144531 10.882812 1.238281 12.003906 1.238281 C 13.121094 1.238281 14.027344 2.144531 14.027344 3.265625 Z M 14.027344 3.265625 "/>
<path style=" stroke:none;fill-rule:nonzero;fill:rgb(62.745098%,38.039216%,41.568627%);fill-opacity:1;" d="M 10.492188 4.277344 C 10.492188 4.277344 10.875 7.160156 10.285156 7.484375 C 9.699219 7.804688 13.777344 7.835938 13.777344 7.835938 C 13.777344 7.835938 12.867188 5.335938 13.28125 4.574219 Z M 10.492188 4.277344 "/>
<path style=" stroke:none;fill-rule:nonzero;fill:rgb(81.568627%,80.392157%,88.235294%);fill-opacity:1;" d="M 16.757812 7.851562 L 16.417969 9.398438 L 15.699219 12.667969 L 15.679688 12.847656 L 15.429688 14.925781 L 15.265625 16.300781 L 15.15625 17.230469 C 14.484375 17.574219 14 17.8125 14 17.8125 C 14 17.8125 13.957031 17.601562 13.890625 17.332031 C 13.417969 17.476562 12.546875 17.710938 11.808594 17.757812 C 12.078125 18.058594 12.199219 18.339844 12.03125 18.546875 C 11.527344 19.175781 9.4375 17.859375 8.707031 17.371094 C 8.6875 17.488281 8.683594 17.605469 8.6875 17.722656 L 8.128906 17.292969 L 8.183594 16.300781 L 8.277344 14.625 L 8.394531 12.523438 C 8.355469 12.433594 8.324219 12.339844 8.300781 12.246094 C 8.128906 11.636719 7.921875 10.417969 7.761719 9.398438 C 7.632812 8.574219 7.539062 7.878906 7.515625 7.730469 C 7.515625 7.714844 7.511719 7.703125 7.511719 7.703125 L 10.609375 6.332031 C 10.828125 6.84375 11.855469 6.996094 11.855469 6.996094 C 12.707031 6.9375 13.375 6.488281 13.375 6.488281 Z M 16.757812 7.851562 "/>
<path style=" stroke:none;fill-rule:nonzero;fill:rgb(62.745098%,38.039216%,41.568627%);fill-opacity:1;" d="M 14.234375 17.226562 C 14.234375 17.226562 14.101562 17.269531 13.890625 17.332031 C 13.417969 17.476562 12.546875 17.710938 11.808594 17.757812 C 11.171875 17.796875 10.632812 17.699219 10.535156 17.285156 C 10.492188 17.105469 10.554688 16.957031 10.683594 16.835938 C 11.070312 16.476562 12.085938 16.347656 12.894531 16.300781 C 13.121094 16.289062 13.332031 16.285156 13.507812 16.28125 C 13.804688 16.277344 14 16.285156 14 16.285156 L 14.003906 16.300781 Z M 14.234375 17.226562 "/>
<path style=" stroke:none;fill-rule:nonzero;fill:rgb(18.431373%,18.039216%,25.490196%);fill-opacity:1;" d="M 10.320312 1.347656 L 9.941406 1.195312 C 9.941406 1.195312 10.730469 0.324219 11.832031 0.398438 L 11.523438 0.0585938 C 11.523438 0.0585938 12.28125 -0.246094 12.96875 0.550781 C 13.332031 0.96875 13.75 1.460938 14.011719 2.015625 L 14.414062 2.015625 L 14.246094 2.390625 L 14.839844 2.761719 L 14.230469 2.695312 C 14.265625 2.898438 14.273438 3.109375 14.246094 3.3125 C 14.222656 3.519531 14.117188 3.707031 13.953125 3.839844 C 13.953125 3.839844 13.484375 2.863281 13.484375 2.714844 L 13.484375 3.09375 C 13.484375 3.09375 13.105469 2.75 13.105469 2.523438 L 12.898438 2.789062 L 12.796875 2.371094 L 11.523438 2.789062 L 11.730469 2.449219 L 10.9375 2.5625 L 11.246094 2.144531 C 11.246094 2.144531 10.351562 2.636719 10.320312 3.054688 C 10.285156 3.472656 10.023438 3.867188 10.023438 3.867188 C 10.023438 3.867188 9.320312 1.917969 10.320312 1.347656 Z M 10.320312 1.347656 "/>
<path style=" stroke:none;fill-rule:nonzero;fill:rgb(81.568627%,80.392157%,88.235294%);fill-opacity:1;" d="M 18.957031 14.960938 C 18.75 15.1875 18.238281 15.523438 17.621094 15.886719 C 17.390625 16.023438 17.144531 16.164062 16.894531 16.300781 C 16.296875 16.632812 15.671875 16.964844 15.15625 17.230469 C 14.484375 17.574219 14 17.8125 14 17.8125 C 14 17.8125 13.957031 17.601562 13.890625 17.332031 C 13.796875 16.972656 13.664062 16.507812 13.519531 16.300781 C 13.515625 16.296875 13.511719 16.289062 13.507812 16.28125 C 13.464844 16.226562 13.421875 16.195312 13.382812 16.195312 L 15.429688 14.925781 L 16.316406 14.375 L 15.679688 12.847656 L 14.878906 10.9375 L 15.363281 9.398438 L 15.847656 7.851562 L 16.757812 7.851562 C 16.757812 7.851562 17.058594 8.507812 17.441406 9.425781 C 17.5 9.5625 17.558594 9.707031 17.621094 9.855469 C 18.414062 11.785156 19.402344 14.480469 18.957031 14.960938 Z M 18.957031 14.960938 "/>
<path style=" stroke:none;fill-rule:nonzero;fill:rgb(62.745098%,38.039216%,41.568627%);fill-opacity:1;" d="M 12.03125 18.546875 C 11.527344 19.175781 9.4375 17.859375 8.707031 17.371094 C 8.546875 17.261719 8.453125 17.195312 8.453125 17.195312 L 9.121094 16.300781 L 9.332031 16.019531 C 9.332031 16.019531 9.523438 16.121094 9.800781 16.285156 C 9.8125 16.289062 9.824219 16.296875 9.832031 16.300781 C 10.074219 16.445312 10.378906 16.628906 10.683594 16.835938 C 11.105469 17.125 11.53125 17.449219 11.808594 17.757812 C 12.078125 18.058594 12.199219 18.339844 12.03125 18.546875 Z M 12.03125 18.546875 "/>
<path style=" stroke:none;fill-rule:nonzero;fill:rgb(81.568627%,80.392157%,88.235294%);fill-opacity:1;" d="M 9.800781 16.285156 C 9.726562 16.285156 9.652344 16.289062 9.578125 16.300781 C 8.945312 16.410156 8.757812 16.984375 8.707031 17.371094 C 8.6875 17.488281 8.683594 17.605469 8.6875 17.722656 L 7.925781 17.136719 C 7.433594 16.964844 6.996094 16.660156 6.617188 16.300781 C 6.289062 15.984375 5.992188 15.636719 5.738281 15.257812 C 5.484375 14.886719 5.253906 14.496094 5.058594 14.089844 C 4.945312 13.859375 4.941406 13.59375 5.046875 13.359375 L 5.738281 11.8125 L 6.75 9.554688 C 6.757812 9.5 6.765625 9.449219 6.773438 9.398438 C 6.976562 8.242188 7.511719 7.730469 7.511719 7.730469 L 7.925781 7.730469 L 8.199219 9.398438 L 8.539062 11.464844 L 8.300781 12.246094 L 7.746094 14.050781 L 8.277344 14.625 Z M 9.800781 16.285156 "/>
<path style=" stroke:none;fill-rule:nonzero;fill:rgb(100%,100%,100%);fill-opacity:1;" d="M 10.265625 11.464844 L 10.617188 11.875 C 10.75 11.851562 10.886719 11.824219 11.023438 11.789062 L 10.925781 11.464844 L 11.171875 11.753906 C 12.65625 11.386719 14.5 10.675781 14.5 10.675781 C 14.5 10.675781 12.511719 10.824219 11.027344 10.496094 C 10.367188 10.355469 9.691406 10.679688 9.421875 11.296875 C 9.265625 11.65625 9.289062 11.964844 9.847656 11.964844 C 10.035156 11.964844 10.222656 11.945312 10.40625 11.914062 Z M 10.265625 11.464844 "/>
<path style=" stroke:none;fill-rule:nonzero;fill:rgb(24.705882%,23.921569%,33.72549%);fill-opacity:1;" d="M 18.273438 18.210938 L 18.273438 18.378906 C 18.273438 18.425781 18.265625 18.46875 18.25 18.511719 C 18.242188 18.53125 18.230469 18.550781 18.222656 18.566406 C 18.15625 18.679688 18.035156 18.75 17.902344 18.75 L 5.609375 18.75 C 5.476562 18.75 5.355469 18.679688 5.289062 18.566406 C 5.28125 18.550781 5.269531 18.53125 5.261719 18.511719 C 5.246094 18.46875 5.238281 18.425781 5.238281 18.378906 L 5.238281 18.210938 C 5.238281 18.007812 5.402344 17.839844 5.609375 17.839844 L 6.316406 17.839844 L 6.316406 17.761719 C 6.316406 17.757812 6.316406 17.753906 6.320312 17.75 C 6.324219 17.75 6.328125 17.746094 6.332031 17.746094 L 6.703125 17.746094 C 6.707031 17.746094 6.710938 17.75 6.710938 17.75 C 6.714844 17.753906 6.71875 17.757812 6.71875 17.761719 L 6.71875 17.839844 L 6.949219 17.839844 L 6.949219 17.761719 C 6.949219 17.757812 6.949219 17.753906 6.953125 17.75 C 6.957031 17.75 6.960938 17.746094 6.964844 17.746094 L 7.332031 17.746094 C 7.335938 17.746094 7.339844 17.75 7.34375 17.75 C 7.347656 17.753906 7.347656 17.757812 7.347656 17.761719 L 7.347656 17.839844 L 7.582031 17.839844 L 7.582031 17.761719 C 7.582031 17.757812 7.582031 17.753906 7.585938 17.75 C 7.585938 17.75 7.589844 17.746094 7.59375 17.746094 L 7.964844 17.746094 C 7.96875 17.746094 7.972656 17.75 7.976562 17.75 C 7.980469 17.753906 7.980469 17.757812 7.980469 17.761719 L 7.980469 17.839844 L 8.210938 17.839844 L 8.210938 17.761719 C 8.210938 17.757812 8.214844 17.753906 8.214844 17.75 C 8.21875 17.75 8.222656 17.746094 8.226562 17.746094 L 8.597656 17.746094 C 8.601562 17.746094 8.605469 17.75 8.609375 17.75 C 8.609375 17.753906 8.613281 17.757812 8.613281 17.761719 L 8.613281 17.839844 L 8.84375 17.839844 L 8.84375 17.761719 C 8.84375 17.757812 8.84375 17.753906 8.847656 17.75 C 8.851562 17.75 8.855469 17.746094 8.859375 17.746094 L 9.230469 17.746094 C 9.234375 17.746094 9.238281 17.75 9.238281 17.75 C 9.242188 17.753906 9.246094 17.757812 9.242188 17.761719 L 9.242188 17.839844 L 9.476562 17.839844 L 9.476562 17.761719 C 9.476562 17.757812 9.476562 17.753906 9.480469 17.75 C 9.484375 17.75 9.488281 17.746094 9.492188 17.746094 L 9.859375 17.746094 C 9.863281 17.746094 9.867188 17.75 9.871094 17.75 C 9.875 17.753906 9.875 17.757812 9.875 17.761719 L 9.875 17.839844 L 10.105469 17.839844 L 10.105469 17.761719 C 10.105469 17.757812 10.109375 17.753906 10.113281 17.75 C 10.113281 17.75 10.117188 17.746094 10.121094 17.746094 L 13.019531 17.746094 C 13.023438 17.746094 13.027344 17.75 13.03125 17.75 C 13.03125 17.753906 13.035156 17.757812 13.035156 17.761719 L 13.035156 17.839844 L 13.265625 17.839844 L 13.265625 17.761719 C 13.265625 17.757812 13.265625 17.753906 13.269531 17.75 C 13.273438 17.75 13.277344 17.746094 13.28125 17.746094 L 13.652344 17.746094 C 13.660156 17.746094 13.667969 17.753906 13.667969 17.761719 L 13.667969 17.839844 L 13.898438 17.839844 L 13.898438 17.761719 C 13.898438 17.757812 13.898438 17.753906 13.902344 17.75 C 13.90625 17.75 13.910156 17.746094 13.914062 17.746094 L 14.28125 17.746094 C 14.285156 17.746094 14.289062 17.75 14.292969 17.75 C 14.296875 17.753906 14.296875 17.757812 14.296875 17.761719 L 14.296875 17.839844 L 14.527344 17.839844 L 14.527344 17.761719 C 14.527344 17.757812 14.53125 17.753906 14.535156 17.75 C 14.535156 17.75 14.539062 17.746094 14.542969 17.746094 L 14.914062 17.746094 C 14.917969 17.746094 14.921875 17.75 14.925781 17.75 C 14.929688 17.753906 14.929688 17.757812 14.929688 17.761719 L 14.929688 17.839844 L 15.160156 17.839844 L 15.160156 17.761719 C 15.160156 17.757812 15.164062 17.753906 15.164062 17.75 C 15.167969 17.75 15.171875 17.746094 15.175781 17.746094 L 15.546875 17.746094 C 15.554688 17.746094 15.5625 17.753906 15.5625 17.761719 L 15.5625 17.839844 L 15.792969 17.839844 L 15.792969 17.761719 C 15.792969 17.757812 15.792969 17.753906 15.796875 17.75 C 15.800781 17.75 15.804688 17.746094 15.808594 17.746094 L 16.179688 17.746094 C 16.183594 17.746094 16.1875 17.75 16.1875 17.75 C 16.191406 17.753906 16.191406 17.757812 16.191406 17.761719 L 16.191406 17.839844 L 16.425781 17.839844 L 16.425781 17.761719 C 16.425781 17.757812 16.425781 17.753906 16.429688 17.75 C 16.433594 17.75 16.4375 17.746094 16.441406 17.746094 L 16.808594 17.746094 C 16.8125 17.746094 16.816406 17.75 16.820312 17.75 C 16.824219 17.753906 16.824219 17.757812 16.824219 17.761719 L 16.824219 17.839844 L 17.902344 17.839844 C 18.109375 17.839844 18.273438 18.007812 18.273438 18.210938 Z M 18.273438 18.210938 "/>
<path style=" stroke:none;fill-rule:nonzero;fill:rgb(24.705882%,23.921569%,33.72549%);fill-opacity:1;" d="M 1.664062 18.511719 L 21.847656 18.511719 L 21.847656 18.566406 L 1.664062 18.566406 Z M 1.664062 18.511719 "/>
<path style=" stroke:none;fill-rule:nonzero;fill:rgb(24.705882%,23.921569%,33.72549%);fill-opacity:1;" d="M 17.28125 11.160156 L 12.699219 11.160156 L 12.699219 11.066406 L 10.621094 11.066406 L 10.621094 11.160156 L 6.019531 11.160156 C 5.847656 11.160156 5.710938 11.300781 5.710938 11.472656 L 5.710938 17.757812 C 5.710938 17.929688 5.847656 18.066406 6.019531 18.066406 L 17.28125 18.066406 C 17.453125 18.066406 17.59375 17.929688 17.59375 17.757812 L 17.59375 11.472656 C 17.59375 11.300781 17.453125 11.160156 17.28125 11.160156 Z M 17.28125 11.160156 "/>
<path style="fill:none;stroke-width:2;stroke-linecap:butt;stroke-linejoin:miter;stroke:rgb(81.568627%,80.392157%,88.235294%);stroke-opacity:1;stroke-miterlimit:10;" d="M 448.444425 484.311472 C 448.444425 498.193462 437.236861 509.384046 423.475675 509.384046 C 409.714489 509.384046 398.506925 498.193462 398.506925 484.311472 C 398.506925 470.571135 409.714489 459.380551 423.475675 459.380551 C 437.236861 459.380551 448.444425 470.571135 448.444425 484.311472 Z M 448.444425 484.311472 " transform="matrix(0.0275344,0,0,0.0275762,0,0)"/>
<path style=" stroke:none;fill-rule:nonzero;fill:rgb(81.568627%,80.392157%,88.235294%);fill-opacity:1;" d="M 12.128906 13.605469 C 12.128906 13.984375 11.820312 14.292969 11.441406 14.292969 C 11.058594 14.292969 10.753906 13.984375 10.753906 13.605469 C 10.753906 13.222656 11.058594 12.914062 11.441406 12.914062 C 11.820312 12.914062 12.128906 13.222656 12.128906 13.605469 Z M 12.128906 13.605469 "/>
<path style=" stroke:none;fill-rule:nonzero;fill:rgb(81.568627%,80.392157%,88.235294%);fill-opacity:1;" d="M 2.214844 18.234375 L 2.984375 18.234375 L 2.984375 19.007812 L 2.214844 19.007812 Z M 2.214844 18.234375 "/>
<path style=" stroke:none;fill-rule:nonzero;fill:rgb(24.705882%,23.921569%,33.72549%);fill-opacity:1;" d="M 2.519531 17.628906 L 2.519531 18.566406 L 3.453125 18.566406 L 3.453125 17.628906 Z M 3.414062 18.523438 L 2.558594 18.523438 L 2.558594 17.667969 L 3.414062 17.667969 Z M 3.414062 18.523438 "/>
<path style=" stroke:none;fill-rule:nonzero;fill:rgb(81.568627%,80.392157%,88.235294%);fill-opacity:1;" d="M 20.058594 18.234375 L 20.828125 18.234375 L 20.828125 19.007812 L 20.058594 19.007812 Z M 20.058594 18.234375 "/>
<path style=" stroke:none;fill-rule:nonzero;fill:rgb(24.705882%,23.921569%,33.72549%);fill-opacity:1;" d="M 20.359375 17.628906 L 20.359375 18.566406 L 21.296875 18.566406 L 21.296875 17.628906 Z M 21.253906 18.523438 L 20.402344 18.523438 L 20.402344 17.667969 L 21.253906 17.667969 Z M 21.253906 18.523438 "/>
<path style=" stroke:none;fill-rule:nonzero;fill:rgb(100%,100%,100%);fill-opacity:1;" d="M 4.789062 4.15625 C 4.789062 5.367188 3.8125 6.34375 2.605469 6.34375 C 1.398438 6.34375 0.417969 5.367188 0.417969 4.15625 C 0.417969 2.949219 1.398438 1.96875 2.605469 1.96875 C 3.8125 1.96875 4.789062 2.949219 4.789062 4.15625 Z M 4.789062 4.15625 "/>
<path style=" stroke:none;fill-rule:nonzero;fill:rgb(24.705882%,23.921569%,33.72549%);fill-opacity:1;" d="M 3.367188 1.558594 C 3.167969 1.53125 2.96875 1.53125 2.769531 1.558594 C 1.871094 1.675781 1.121094 2.308594 0.851562 3.175781 C 0.792969 3.371094 0.757812 3.570312 0.753906 3.773438 C 0.75 3.800781 0.75 3.832031 0.75 3.859375 C 0.75 5.140625 1.789062 6.179688 3.066406 6.179688 C 3.117188 6.179688 3.167969 6.179688 3.214844 6.175781 C 3.328125 6.167969 3.441406 6.152344 3.554688 6.128906 C 4.65625 5.890625 5.429688 4.890625 5.382812 3.761719 C 5.335938 2.632812 4.484375 1.703125 3.367188 1.558594 Z M 3.792969 5.992188 C 3.605469 6.058594 3.410156 6.097656 3.214844 6.109375 C 3.167969 6.113281 3.117188 6.113281 3.066406 6.113281 C 1.824219 6.113281 0.816406 5.105469 0.816406 3.859375 C 0.816406 3.832031 0.816406 3.800781 0.820312 3.773438 C 0.867188 2.5625 1.859375 1.605469 3.066406 1.605469 C 4.167969 1.605469 5.109375 2.402344 5.289062 3.492188 C 5.46875 4.578125 4.835938 5.636719 3.792969 5.992188 Z M 3.792969 5.992188 "/>
<path style=" stroke:none;fill-rule:nonzero;fill:rgb(24.705882%,23.921569%,33.72549%);fill-opacity:1;" d="M 3.035156 1.738281 L 3.101562 1.738281 L 3.101562 2.203125 L 3.035156 2.203125 Z M 3.035156 1.738281 "/>
<path style=" stroke:none;fill-rule:nonzero;fill:rgb(24.705882%,23.921569%,33.72549%);fill-opacity:1;" d="M 1.546875 2.382812 L 1.59375 2.335938 L 1.921875 2.664062 L 1.875 2.710938 Z M 1.546875 2.382812 "/>
<path style=" stroke:none;fill-rule:nonzero;fill:rgb(24.705882%,23.921569%,33.72549%);fill-opacity:1;" d="M 0.949219 3.890625 L 0.949219 3.828125 L 1.414062 3.828125 L 1.414062 3.890625 Z M 0.949219 3.890625 "/>
<path style=" stroke:none;fill-rule:nonzero;fill:rgb(24.705882%,23.921569%,33.72549%);fill-opacity:1;" d="M 1.59375 5.382812 L 1.546875 5.335938 L 1.875 5.007812 L 1.921875 5.054688 Z M 1.59375 5.382812 "/>
<path style=" stroke:none;fill-rule:nonzero;fill:rgb(24.705882%,23.921569%,33.72549%);fill-opacity:1;" d="M 4.261719 2.710938 L 4.214844 2.664062 L 4.542969 2.335938 L 4.589844 2.382812 Z M 4.261719 2.710938 "/>
<path style=" stroke:none;fill-rule:nonzero;fill:rgb(24.705882%,23.921569%,33.72549%);fill-opacity:1;" d="M 4.722656 3.890625 L 4.722656 3.828125 L 5.1875 3.828125 L 5.1875 3.890625 Z M 4.722656 3.890625 "/>
<path style=" stroke:none;fill-rule:nonzero;fill:rgb(24.705882%,23.921569%,33.72549%);fill-opacity:1;" d="M 4.214844 5.054688 L 4.261719 5.007812 L 4.589844 5.335938 L 4.542969 5.382812 Z M 4.214844 5.054688 "/>
<path style=" stroke:none;fill-rule:nonzero;fill:rgb(24.705882%,23.921569%,33.72549%);fill-opacity:1;" d="M 3.035156 5.515625 L 3.101562 5.515625 L 3.101562 5.980469 L 3.035156 5.980469 Z M 3.035156 5.515625 "/>
<path style=" stroke:none;fill-rule:nonzero;fill:rgb(24.705882%,23.921569%,33.72549%);fill-opacity:1;" d="M 3.167969 3.726562 C 3.109375 3.683594 3.027344 3.683594 2.96875 3.726562 C 2.949219 3.742188 2.933594 3.761719 2.921875 3.78125 C 2.878906 3.859375 2.90625 3.957031 2.984375 4 C 3.058594 4.046875 3.15625 4.023438 3.207031 3.953125 C 3.253906 3.878906 3.238281 3.78125 3.167969 3.726562 Z M 3.066406 3.957031 C 3.011719 3.957031 2.96875 3.914062 2.96875 3.859375 C 2.96875 3.839844 2.972656 3.820312 2.984375 3.804688 C 3.011719 3.765625 3.0625 3.75 3.105469 3.769531 C 3.148438 3.785156 3.175781 3.832031 3.164062 3.878906 C 3.15625 3.925781 3.113281 3.957031 3.066406 3.957031 Z M 3.066406 3.957031 "/>
<path style=" stroke:none;fill-rule:nonzero;fill:rgb(24.705882%,23.921569%,33.72549%);fill-opacity:1;" d="M 2.769531 0.976562 L 3.367188 0.976562 L 3.367188 1.570312 L 2.769531 1.570312 Z M 2.769531 0.976562 "/>
<path style=" stroke:none;fill-rule:nonzero;fill:rgb(24.705882%,23.921569%,33.72549%);fill-opacity:1;" d="M 3.863281 0.792969 C 3.863281 0.636719 3.507812 0.511719 3.066406 0.511719 C 2.628906 0.511719 2.273438 0.636719 2.273438 0.792969 C 2.273438 0.949219 2.628906 1.074219 3.066406 1.074219 C 3.507812 1.074219 3.863281 0.949219 3.863281 0.792969 Z M 3.863281 0.792969 "/>
<path style=" stroke:none;fill-rule:nonzero;fill:rgb(24.705882%,23.921569%,33.72549%);fill-opacity:1;" d="M 2.96875 2.601562 L 3.167969 2.601562 L 3.167969 3.726562 L 2.96875 3.726562 Z M 2.96875 2.601562 "/>
<path style=" stroke:none;fill-rule:nonzero;fill:rgb(24.705882%,23.921569%,33.72549%);fill-opacity:1;" d="M 0 6.078125 L 6.222656 6.078125 L 6.222656 6.144531 L 0 6.144531 Z M 0 6.078125 "/>
<path style=" stroke:none;fill-rule:nonzero;fill:rgb(81.568627%,80.392157%,88.235294%);fill-opacity:1;" d="M 4.148438 16.539062 C 4.171875 17.421875 3.65625 17.742188 3.011719 17.761719 C 3 17.761719 2.984375 17.761719 2.96875 17.761719 C 2.9375 17.761719 2.910156 17.761719 2.878906 17.761719 C 2.296875 17.738281 1.835938 17.425781 1.808594 16.605469 C 1.785156 15.757812 2.835938 14.65625 2.914062 14.574219 C 2.917969 14.574219 2.921875 14.570312 2.921875 14.570312 C 2.921875 14.570312 4.121094 15.65625 4.148438 16.539062 Z M 4.148438 16.539062 "/>
<path style=" stroke:none;fill-rule:nonzero;fill:rgb(24.705882%,23.921569%,33.72549%);fill-opacity:1;" d="M 2.964844 17.628906 L 3.375 17.019531 L 2.96875 17.695312 L 2.96875 17.761719 C 2.9375 17.761719 2.910156 17.761719 2.878906 17.761719 L 2.898438 16.878906 L 2.898438 16.871094 L 2.902344 16.785156 L 2.453125 16.132812 L 2.902344 16.722656 L 2.902344 16.742188 L 2.917969 16.074219 L 2.53125 15.398438 L 2.917969 15.957031 L 2.914062 14.574219 L 2.914062 14.570312 L 2.914062 14.574219 L 2.941406 15.664062 L 3.292969 15.222656 L 2.941406 15.757812 L 2.949219 16.355469 L 3.273438 15.773438 L 2.953125 16.441406 L 2.957031 16.773438 L 3.429688 15.964844 L 2.957031 16.890625 Z M 2.964844 17.628906 "/>
<path style=" stroke:none;fill-rule:nonzero;fill:rgb(81.568627%,80.392157%,88.235294%);fill-opacity:1;" d="M 21.988281 16.539062 C 22.015625 17.421875 21.5 17.742188 20.855469 17.761719 C 20.839844 17.761719 20.824219 17.761719 20.8125 17.761719 C 20.78125 17.761719 20.75 17.761719 20.722656 17.761719 C 20.136719 17.738281 19.675781 17.425781 19.652344 16.605469 C 19.628906 15.757812 20.679688 14.65625 20.757812 14.574219 C 20.761719 14.574219 20.761719 14.570312 20.761719 14.570312 C 20.761719 14.570312 21.964844 15.65625 21.988281 16.539062 Z M 21.988281 16.539062 "/>
<path style=" stroke:none;fill-rule:nonzero;fill:rgb(24.705882%,23.921569%,33.72549%);fill-opacity:1;" d="M 20.808594 17.628906 L 21.21875 17.019531 L 20.808594 17.695312 L 20.8125 17.761719 C 20.78125 17.761719 20.75 17.761719 20.722656 17.761719 L 20.742188 16.878906 L 20.742188 16.871094 L 20.746094 16.785156 L 20.296875 16.132812 L 20.742188 16.722656 L 20.746094 16.742188 L 20.761719 16.074219 L 20.375 15.398438 L 20.761719 15.957031 L 20.757812 14.574219 L 20.757812 14.570312 L 20.757812 14.574219 L 20.785156 15.664062 L 21.136719 15.222656 L 20.785156 15.757812 L 20.792969 16.355469 L 21.117188 15.773438 L 20.792969 16.441406 L 20.796875 16.773438 L 21.269531 15.964844 L 20.800781 16.890625 Z M 20.808594 17.628906 "/>
</g>
</svg>
